<?xml version="1.0" encoding="utf-8"?>
<!-- Generator: Adobe Illustrator 24.3.0, SVG Export Plug-In . SVG Version: 6.00 Build 0)  -->
<svg version="1.1" id="Layer_1" xmlns="http://www.w3.org/2000/svg" xmlns:xlink="http://www.w3.org/1999/xlink" x="0px" y="0px"
	 viewBox="0 0 2448.1 2448.1" style="enable-background:new 0 0 2448.1 2448.1;" xml:space="preserve">
<style type="text/css">
	.st0{fill:url(#SVGID_1_);}
</style>
<g id="Layer_2_1_">
	<g id="Layer_1-2">
		<linearGradient id="SVGID_1_" gradientUnits="userSpaceOnUse" x1="1224" y1="0" x2="1224" y2="2448">
			<stop  offset="0" style="stop-color:#DA09FF"/>
			<stop  offset="1" style="stop-color:#52109A"/>
		</linearGradient>
		<path class="st0" d="M1224,0C549.1,0,0,549.1,0,1224s549.1,1224,1224,1224s1224-549.1,1224-1224S1899,0,1224,0z M1793.7,349.8
			l-403,618.5c-96.7-63.3-220.9-66.3-320.6-7.9L667,341.7C1007.9,125.6,1448.8,124.2,1793.7,349.8L1793.7,349.8z M751.6,2154.8
			c-356.3-181.6-593.2-560.5-569.9-988l737.3,39.8c-0.3,5.8-0.5,11.6-0.5,17.4c0,118.7,68.1,221.8,167.3,272.3L751.6,2154.8z
			 M1224,1349.3c-69.2,0-125.3-56.1-125.2-125.3c0-69.2,56.1-125.3,125.3-125.2c69.2,0,125.2,56.1,125.2,125.2
			C1349.3,1293.2,1293.2,1349.3,1224,1349.3z M1696.3,2154.8l-334.2-658.4c99.2-50.5,167.3-153.6,167.3-272.3c0-5.5-0.2-11-0.5-16.5
			l737.3-39.8C2289,1590.5,2056.5,1971.3,1696.3,2154.8L1696.3,2154.8z"/>
	</g>
</g>
</svg>
